  0
SECTION
  2
HEADER
  9
$ACADVER
  1
AC1009
  9
$INSBASE
 10
0
 20
0
 30
0
  9
$EXTMIN
 10
-5
 20
-2.399324
 30
0
  9
$EXTMAX
 10
60.688779
 20
42.099366
 30
0
  9
$INSUNITS
 70
4
  0
ENDSEC
  0
SECTION
  2
TABLES
  0
TABLE
  2
LTYPE
 70
2
  0
LTYPE
  2
CONTINUOUS
 70
0
  3
Solid line
 72
65
 73
0
 40
0
  0
LTYPE
  2
DASHED
 70
0
  3
__ __ __ __
 72
65
 73
2
 40
3
 49
2
 49
-1
  0
ENDTAB
  0
TABLE
  2
LAYER
 70
2
  0
LAYER
  2
0
 70
0
 62
7
  6
CONTINUOUS
  0
LAYER
  2
SKETCH
 70
0
 62
7
  6
CONTINUOUS
  0
ENDTAB
  0
ENDSEC
  0
SECTION
  2
ENTITIES
  0
LINE
  8
SKETCH
 10
0
 20
0
 30
0
 11
20
 21
0
 31
0
  0
ARC
  8
SKETCH
 10
20
 20
5
 30
0
 40
5
 50
270
 51
90
  0
LINE
  8
SKETCH
 10
20
 20
10
 30
0
 11
0
 21
10
 31
0
  0
ARC
  8
SKETCH
 10
0
 20
5
 30
0
 40
5
 50
90
 51
270
  0
POLYLINE
  8
SKETCH
 66
1
 10
0
 20
0
 30
0
 70
1
  0
VERTEX
  8
SKETCH
 10
60.392305
 20
11
 30
0
  0
VERTEX
  8
SKETCH
 10
60.294674
 20
11.153274
 30
0
  0
VERTEX
  8
SKETCH
 10
60.183465
 20
11.298433
 30
0
  0
VERTEX
  8
SKETCH
 10
60.058825
 20
11.435285
 30
0
  0
VERTEX
  8
SKETCH
 10
59.920919
 20
11.563649
 30
0
  0
VERTEX
  8
SKETCH
 10
59.769927
 20
11.683356
 30
0
  0
VERTEX
  8
SKETCH
 10
59.606049
 20
11.794248
 30
0
  0
VERTEX
  8
SKETCH
 10
59.429502
 20
11.896179
 30
0
  0
VERTEX
  8
SKETCH
 10
59.240518
 20
11.989015
 30
0
  0
VERTEX
  8
SKETCH
 10
59.039347
 20
12.072632
 30
0
  0
VERTEX
  8
SKETCH
 10
58.826253
 20
12.146922
 30
0
  0
VERTEX
  8
SKETCH
 10
58.601518
 20
12.211785
 30
0
  0
VERTEX
  8
SKETCH
 10
58.365438
 20
12.267136
 30
0
  0
VERTEX
  8
SKETCH
 10
58.118325
 20
12.312903
 30
0
  0
VERTEX
  8
SKETCH
 10
57.860505
 20
12.349024
 30
0
  0
VERTEX
  8
SKETCH
 10
57.592317
 20
12.375452
 30
0
  0
VERTEX
  8
SKETCH
 10
57.314116
 20
12.392153
 30
0
  0
VERTEX
  8
SKETCH
 10
57.026267
 20
12.399104
 30
0
  0
VERTEX
  8
SKETCH
 10
56.729152
 20
12.396297
 30
0
  0
VERTEX
  8
SKETCH
 10
56.423161
 20
12.383734
 30
0
  0
VERTEX
  8
SKETCH
 10
56.108699
 20
12.361432
 30
0
  0
VERTEX
  8
SKETCH
 10
55.78618
 20
12.329422
 30
0
  0
VERTEX
  8
SKETCH
 10
55.456029
 20
12.287744
 30
0
  0
VERTEX
  8
SKETCH
 10
55.118682
 20
12.236455
 30
0
  0
VERTEX
  8
SKETCH
 10
54.774584
 20
12.175621
 30
0
  0
VERTEX
  8
SKETCH
 10
54.424189
 20
12.105323
 30
0
  0
VERTEX
  8
SKETCH
 10
54.067958
 20
12.025653
 30
0
  0
VERTEX
  8
SKETCH
 10
53.706362
 20
11.936718
 30
0
  0
VERTEX
  8
SKETCH
 10
53.339878
 20
11.838633
 30
0
  0
VERTEX
  8
SKETCH
 10
52.968989
 20
11.731529
 30
0
  0
VERTEX
  8
SKETCH
 10
52.594184
 20
11.615546
 30
0
  0
VERTEX
  8
SKETCH
 10
52.215957
 20
11.490838
 30
0
  0
VERTEX
  8
SKETCH
 10
51.834808
 20
11.357569
 30
0
  0
VERTEX
  8
SKETCH
 10
51.451238
 20
11.215915
 30
0
  0
VERTEX
  8
SKETCH
 10
51.065755
 20
11.066062
 30
0
  0
VERTEX
  8
SKETCH
 10
50.678866
 20
10.908209
 30
0
  0
VERTEX
  8
SKETCH
 10
50.291081
 20
10.742564
 30
0
  0
VERTEX
  8
SKETCH
 10
49.902913
 20
10.569344
 30
0
  0
VERTEX
  8
SKETCH
 10
49.514873
 20
10.388779
 30
0
  0
VERTEX
  8
SKETCH
 10
49.127472
 20
10.201106
 30
0
  0
VERTEX
  8
SKETCH
 10
48.741223
 20
10.006574
 30
0
  0
VERTEX
  8
SKETCH
 10
48.356633
 20
9.805438
 30
0
  0
VERTEX
  8
SKETCH
 10
47.974211
 20
9.597964
 30
0
  0
VERTEX
  8
SKETCH
 10
47.594461
 20
9.384426
 30
0
  0
VERTEX
  8
SKETCH
 10
47.217884
 20
9.165105
 30
0
  0
VERTEX
  8
SKETCH
 10
46.844976
 20
8.940291
 30
0
  0
VERTEX
  8
SKETCH
 10
46.476229
 20
8.71028
 30
0
  0
VERTEX
  8
SKETCH
 10
46.11213
 20
8.475375
 30
0
  0
VERTEX
  8
SKETCH
 10
45.753159
 20
8.235887
 30
0
  0
VERTEX
  8
SKETCH
 10
45.399789
 20
7.99213
 30
0
  0
VERTEX
  8
SKETCH
 10
45.052486
 20
7.744427
 30
0
  0
VERTEX
  8
SKETCH
 10
44.711709
 20
7.493105
 30
0
  0
VERTEX
  8
SKETCH
 10
44.377906
 20
7.238494
 30
0
  0
VERTEX
  8
SKETCH
 10
44.051519
 20
6.980931
 30
0
  0
VERTEX
  8
SKETCH
 10
43.732977
 20
6.720755
 30
0
  0
VERTEX
  8
SKETCH
 10
43.422701
 20
6.45831
 30
0
  0
VERTEX
  8
SKETCH
 10
43.1211
 20
6.193941
 30
0
  0
VERTEX
  8
SKETCH
 10
42.828572
 20
5.927997
 30
0
  0
VERTEX
  8
SKETCH
 10
42.545502
 20
5.66083
 30
0
  0
VERTEX
  8
SKETCH
 10
42.272264
 20
5.392791
 30
0
  0
VERTEX
  8
SKETCH
 10
42.009218
 20
5.124234
 30
0
  0
VERTEX
  8
SKETCH
 10
41.756712
 20
4.855513
 30
0
  0
VERTEX
  8
SKETCH
 10
41.515078
 20
4.586982
 30
0
  0
VERTEX
  8
SKETCH
 10
41.284635
 20
4.318997
 30
0
  0
VERTEX
  8
SKETCH
 10
41.065687
 20
4.051909
 30
0
  0
VERTEX
  8
SKETCH
 10
40.858522
 20
3.786072
 30
0
  0
VERTEX
  8
SKETCH
 10
40.663415
 20
3.521836
 30
0
  0
VERTEX
  8
SKETCH
 10
40.480621
 20
3.25955
 30
0
  0
VERTEX
  8
SKETCH
 10
40.310383
 20
2.999559
 30
0
  0
VERTEX
  8
SKETCH
 10
40.152925
 20
2.742207
 30
0
  0
VERTEX
  8
SKETCH
 10
40.008455
 20
2.487832
 30
0
  0
VERTEX
  8
SKETCH
 10
39.877162
 20
2.236771
 30
0
  0
VERTEX
  8
SKETCH
 10
39.759221
 20
1.989354
 30
0
  0
VERTEX
  8
SKETCH
 10
39.654786
 20
1.745908
 30
0
  0
VERTEX
  8
SKETCH
 10
39.563996
 20
1.506755
 30
0
  0
VERTEX
  8
SKETCH
 10
39.486971
 20
1.272208
 30
0
  0
VERTEX
  8
SKETCH
 10
39.423811
 20
1.042578
 30
0
  0
VERTEX
  8
SKETCH
 10
39.374601
 20
0.818167
 30
0
  0
VERTEX
  8
SKETCH
 10
39.339404
 20
0.599273
 30
0
  0
VERTEX
  8
SKETCH
 10
39.318268
 20
0.386182
 30
0
  0
VERTEX
  8
SKETCH
 10
39.311221
 20
0.179176
 30
0
  0
VERTEX
  8
SKETCH
 10
39.318271
 20
-0.021471
 30
0
  0
VERTEX
  8
SKETCH
 10
39.33941
 20
-0.215495
 30
0
  0
VERTEX
  8
SKETCH
 10
39.374609
 20
-0.40264
 30
0
  0
VERTEX
  8
SKETCH
 10
39.423822
 20
-0.58266
 30
0
  0
VERTEX
  8
SKETCH
 10
39.486984
 20
-0.755316
 30
0
  0
VERTEX
  8
SKETCH
 10
39.564012
 20
-0.920382
 30
0
  0
VERTEX
  8
SKETCH
 10
39.654805
 20
-1.077639
 30
0
  0
VERTEX
  8
SKETCH
 10
39.759242
 20
-1.226881
 30
0
  0
VERTEX
  8
SKETCH
 10
39.877186
 20
-1.367909
 30
0
  0
VERTEX
  8
SKETCH
 10
40.008481
 20
-1.500539
 30
0
  0
VERTEX
  8
SKETCH
 10
40.152954
 20
-1.624595
 30
0
  0
VERTEX
  8
SKETCH
 10
40.310414
 20
-1.739913
 30
0
  0
VERTEX
  8
SKETCH
 10
40.480655
 20
-1.846343
 30
0
  0
VERTEX
  8
SKETCH
 10
40.66345
 20
-1.943742
 30
0
  0
VERTEX
  8
SKETCH
 10
40.85856
 20
-2.031983
 30
0
  0
VERTEX
  8
SKETCH
 10
41.065727
 20
-2.110949
 30
0
  0
VERTEX
  8
SKETCH
 10
41.284678
 20
-2.180537
 30
0
  0
VERTEX
  8
SKETCH
 10
41.515123
 20
-2.240654
 30
0
  0
VERTEX
  8
SKETCH
 10
41.756759
 20
-2.291221
 30
0
  0
VERTEX
  8
SKETCH
 10
42.009267
 20
-2.332172
 30
0
  0
VERTEX
  8
SKETCH
 10
42.272315
 20
-2.363452
 30
0
  0
VERTEX
  8
SKETCH
 10
42.545555
 20
-2.38502
 30
0
  0
VERTEX
  8
SKETCH
 10
42.828626
 20
-2.396848
 30
0
  0
VERTEX
  8
SKETCH
 10
43.121156
 20
-2.39892
 30
0
  0
VERTEX
  8
SKETCH
 10
43.422759
 20
-2.391234
 30
0
  0
VERTEX
  8
SKETCH
 10
43.733037
 20
-2.373799
 30
0
  0
VERTEX
  8
SKETCH
 10
44.05158
 20
-2.346638
 30
0
  0
VERTEX
  8
SKETCH
 10
44.377969
 20
-2.309788
 30
0
  0
VERTEX
  8
SKETCH
 10
44.711773
 20
-2.263297
 30
0
  0
VERTEX
  8
SKETCH
 10
45.052551
 20
-2.207226
 30
0
  0
VERTEX
  8
SKETCH
 10
45.399855
 20
-2.141649
 30
0
  0
VERTEX
  8
SKETCH
 10
45.753226
 20
-2.066653
 30
0
  0
VERTEX
  8
SKETCH
 10
46.112199
 20
-1.982337
 30
0
  0
VERTEX
  8
SKETCH
 10
46.476299
 20
-1.888811
 30
0
  0
VERTEX
  8
SKETCH
 10
46.845046
 20
-1.7862
 30
0
  0
VERTEX
  8
SKETCH
 10
47.217955
 20
-1.674638
 30
0
  0
VERTEX
  8
SKETCH
 10
47.594533
 20
-1.554273
 30
0
  0
VERTEX
  8
SKETCH
 10
47.974284
 20
-1.425263
 30
0
  0
VERTEX
  8
SKETCH
 10
48.356706
 20
-1.287779
 30
0
  0
VERTEX
  8
SKETCH
 10
48.741296
 20
-1.142001
 30
0
  0
VERTEX
  8
SKETCH
 10
49.127546
 20
-0.988123
 30
0
  0
VERTEX
  8
SKETCH
 10
49.514946
 20
-0.826347
 30
0
  0
VERTEX
  8
SKETCH
 10
49.902987
 20
-0.656886
 30
0
  0
VERTEX
  8
SKETCH
 10
50.291155
 20
-0.479965
 30
0
  0
VERTEX
  8
SKETCH
 10
50.678939
 20
-0.295816
 30
0
  0
VERTEX
  8
SKETCH
 10
51.065828
 20
-0.104682
 30
0
  0
VERTEX
  8
SKETCH
 10
51.451311
 20
0.093185
 30
0
  0
VERTEX
  8
SKETCH
 10
51.83488
 20
0.297523
 30
0
  0
VERTEX
  8
SKETCH
 10
52.216029
 20
0.508064
 30
0
  0
VERTEX
  8
SKETCH
 10
52.594255
 20
0.724529
 30
0
  0
VERTEX
  8
SKETCH
 10
52.96906
 20
0.946633
 30
0
  0
VERTEX
  8
SKETCH
 10
53.339948
 20
1.174084
 30
0
  0
VERTEX
  8
SKETCH
 10
53.706431
 20
1.40658
 30
0
  0
VERTEX
  8
SKETCH
 10
54.068026
 20
1.643816
 30
0
  0
VERTEX
  8
SKETCH
 10
54.424256
 20
1.885478
 30
0
  0
VERTEX
  8
SKETCH
 10
54.77465
 20
2.131248
 30
0
  0
VERTEX
  8
SKETCH
 10
55.118747
 20
2.380802
 30
0
  0
VERTEX
  8
SKETCH
 10
55.456092
 20
2.63381
 30
0
  0
VERTEX
  8
SKETCH
 10
55.786242
 20
2.88994
 30
0
  0
VERTEX
  8
SKETCH
 10
56.108759
 20
3.148852
 30
0
  0
VERTEX
  8
SKETCH
 10
56.42322
 20
3.410206
 30
0
  0
VERTEX
  8
SKETCH
 10
56.729209
 20
3.673656
 30
0
  0
VERTEX
  8
SKETCH
 10
57.026323
 20
3.938856
 30
0
  0
VERTEX
  8
SKETCH
 10
57.314169
 20
4.205455
 30
0
  0
VERTEX
  8
SKETCH
 10
57.592369
 20
4.473103
 30
0
  0
VERTEX
  8
SKETCH
 10
57.860555
 20
4.741445
 30
0
  0
VERTEX
  8
SKETCH
 10
58.118373
 20
5.010128
 30
0
  0
VERTEX
  8
SKETCH
 10
58.365484
 20
5.278798
 30
0
  0
VERTEX
  8
SKETCH
 10
58.601562
 20
5.547101
 30
0
  0
VERTEX
  8
SKETCH
 10
58.826295
 20
5.814681
 30
0
  0
VERTEX
  8
SKETCH
 10
59.039386
 20
6.081188
 30
0
  0
VERTEX
  8
SKETCH
 10
59.240555
 20
6.346268
 30
0
  0
VERTEX
  8
SKETCH
 10
59.429537
 20
6.609572
 30
0
  0
VERTEX
  8
SKETCH
 10
59.606082
 20
6.870754
 30
0
  0
VERTEX
  8
SKETCH
 10
59.769957
 20
7.129468
 30
0
  0
VERTEX
  8
SKETCH
 10
59.920946
 20
7.385374
 30
0
  0
VERTEX
  8
SKETCH
 10
60.05885
 20
7.638133
 30
0
  0
VERTEX
  8
SKETCH
 10
60.183488
 20
7.887413
 30
0
  0
VERTEX
  8
SKETCH
 10
60.294694
 20
8.132885
 30
0
  0
VERTEX
  8
SKETCH
 10
60.392322
 20
8.374225
 30
0
  0
VERTEX
  8
SKETCH
 10
60.476244
 20
8.611114
 30
0
  0
VERTEX
  8
SKETCH
 10
60.546348
 20
8.843241
 30
0
  0
VERTEX
  8
SKETCH
 10
60.602542
 20
9.070298
 30
0
  0
VERTEX
  8
SKETCH
 10
60.644753
 20
9.291988
 30
0
  0
VERTEX
  8
SKETCH
 10
60.672923
 20
9.508016
 30
0
  0
VERTEX
  8
SKETCH
 10
60.687017
 20
9.718099
 30
0
  0
VERTEX
  8
SKETCH
 10
60.687016
 20
9.921959
 30
0
  0
VERTEX
  8
SKETCH
 10
60.672919
 20
10.119327
 30
0
  0
VERTEX
  8
SKETCH
 10
60.644746
 20
10.309943
 30
0
  0
VERTEX
  8
SKETCH
 10
60.602533
 20
10.493556
 30
0
  0
VERTEX
  8
SKETCH
 10
60.546336
 20
10.669923
 30
0
  0
VERTEX
  8
SKETCH
 10
60.476229
 20
10.838812
 30
0
  0
SEQEND
  8
SKETCH
  0
POLYLINE
  8
SKETCH
 66
1
 10
0
 20
0
 30
0
 70
0
  0
VERTEX
  8
SKETCH
 10
0
 20
30
 30
0
  0
VERTEX
  8
SKETCH
 10
0.258241
 20
30.647015
 30
0
  0
VERTEX
  8
SKETCH
 10
0.515693
 20
31.273225
 30
0
  0
VERTEX
  8
SKETCH
 10
0.772367
 20
31.878875
 30
0
  0
VERTEX
  8
SKETCH
 10
1.02827
 20
32.464213
 30
0
  0
VERTEX
  8
SKETCH
 10
1.283412
 20
33.029487
 30
0
  0
VERTEX
  8
SKETCH
 10
1.537802
 20
33.574941
 30
0
  0
VERTEX
  8
SKETCH
 10
1.791448
 20
34.100825
 30
0
  0
VERTEX
  8
SKETCH
 10
2.044359
 20
34.607385
 30
0
  0
VERTEX
  8
SKETCH
 10
2.296544
 20
35.094867
 30
0
  0
VERTEX
  8
SKETCH
 10
2.548013
 20
35.563519
 30
0
  0
VERTEX
  8
SKETCH
 10
2.798773
 20
36.013587
 30
0
  0
VERTEX
  8
SKETCH
 10
3.048835
 20
36.445319
 30
0
  0
VERTEX
  8
SKETCH
 10
3.298206
 20
36.858961
 30
0
  0
VERTEX
  8
SKETCH
 10
3.546896
 20
37.254761
 30
0
  0
VERTEX
  8
SKETCH
 10
3.794914
 20
37.632965
 30
0
  0
VERTEX
  8
SKETCH
 10
4.042268
 20
37.993821
 30
0
  0
VERTEX
  8
SKETCH
 10
4.288967
 20
38.337574
 30
0
  0
VERTEX
  8
SKETCH
 10
4.535021
 20
38.664473
 30
0
  0
VERTEX
  8
SKETCH
 10
4.780438
 20
38.974764
 30
0
  0
VERTEX
  8
SKETCH
 10
5.025226
 20
39.268695
 30
0
  0
VERTEX
  8
SKETCH
 10
5.269396
 20
39.546511
 30
0
  0
VERTEX
  8
SKETCH
 10
5.512956
 20
39.80846
 30
0
  0
VERTEX
  8
SKETCH
 10
5.755914
 20
40.05479
 30
0
  0
VERTEX
  8
SKETCH
 10
5.99828
 20
40.285746
 30
0
  0
VERTEX
  8
SKETCH
 10
6.240063
 20
40.501576
 30
0
  0
VERTEX
  8
SKETCH
 10
6.48127
 20
40.702527
 30
0
  0
VERTEX
  8
SKETCH
 10
6.721913
 20
40.888846
 30
0
  0
VERTEX
  8
SKETCH
 10
6.961998
 20
41.060779
 30
0
  0
VERTEX
  8
SKETCH
 10
7.201536
 20
41.218574
 30
0
  0
VERTEX
  8
SKETCH
 10
7.440534
 20
41.362478
 30
0
  0
VERTEX
  8
SKETCH
 10
7.679002
 20
41.492737
 30
0
  0
VERTEX
  8
SKETCH
 10
7.916949
 20
41.609599
 30
0
  0
VERTEX
  8
SKETCH
 10
8.154384
 20
41.71331
 30
0
  0
VERTEX
  8
SKETCH
 10
8.391315
 20
41.804118
 30
0
  0
VERTEX
  8
SKETCH
 10
8.627752
 20
41.882269
 30
0
  0
VERTEX
  8
SKETCH
 10
8.863703
 20
41.94801
 30
0
  0
VERTEX
  8
SKETCH
 10
9.099178
 20
42.001589
 30
0
  0
VERTEX
  8
SKETCH
 10
9.334184
 20
42.043252
 30
0
  0
VERTEX
  8
SKETCH
 10
9.568731
 20
42.073246
 30
0
  0
VERTEX
  8
SKETCH
 10
9.802829
 20
42.091818
 30
0
  0
VERTEX
  8
SKETCH
 10
10.036485
 20
42.099215
 30
0
  0
VERTEX
  8
SKETCH
 10
10.269709
 20
42.095684
 30
0
  0
VERTEX
  8
SKETCH
 10
10.502509
 20
42.081473
 30
0
  0
VERTEX
  8
SKETCH
 10
10.734895
 20
42.056827
 30
0
  0
VERTEX
  8
SKETCH
 10
10.966876
 20
42.021994
 30
0
  0
VERTEX
  8
SKETCH
 10
11.198459
 20
41.977221
 30
0
  0
VERTEX
  8
SKETCH
 10
11.429655
 20
41.922754
 30
0
  0
VERTEX
  8
SKETCH
 10
11.660472
 20
41.858841
 30
0
  0
VERTEX
  8
SKETCH
 10
11.890919
 20
41.785729
 30
0
  0
VERTEX
  8
SKETCH
 10
12.121005
 20
41.703665
 30
0
  0
VERTEX
  8
SKETCH
 10
12.350738
 20
41.612895
 30
0
  0
VERTEX
  8
SKETCH
 10
12.580128
 20
41.513667
 30
0
  0
VERTEX
  8
SKETCH
 10
12.809184
 20
41.406227
 30
0
  0
VERTEX
  8
SKETCH
 10
13.037914
 20
41.290822
 30
0
  0
VERTEX
  8
SKETCH
 10
13.266327
 20
41.1677
 30
0
  0
VERTEX
  8
SKETCH
 10
13.494432
 20
41.037107
 30
0
  0
VERTEX
  8
SKETCH
 10
13.722239
 20
40.899291
 30
0
  0
VERTEX
  8
SKETCH
 10
13.949756
 20
40.754498
 30
0
  0
VERTEX
  8
SKETCH
 10
14.176991
 20
40.602974
 30
0
  0
VERTEX
  8
SKETCH
 10
14.403954
 20
40.444968
 30
0
  0
VERTEX
  8
SKETCH
 10
14.630654
 20
40.280726
 30
0
  0
VERTEX
  8
SKETCH
 10
14.8571
 20
40.110495
 30
0
  0
VERTEX
  8
SKETCH
 10
15.0833
 20
39.934522
 30
0
  0
VERTEX
  8
SKETCH
 10
15.309263
 20
39.753054
 30
0
  0
VERTEX
  8
SKETCH
 10
15.534999
 20
39.566338
 30
0
  0
VERTEX
  8
SKETCH
 10
15.760516
 20
39.374621
 30
0
  0
VERTEX
  8
SKETCH
 10
15.985822
 20
39.178149
 30
0
  0
VERTEX
  8
SKETCH
 10
16.210928
 20
38.97717
 30
0
  0
VERTEX
  8
SKETCH
 10
16.435842
 20
38.771931
 30
0
  0
VERTEX
  8
SKETCH
 10
16.660572
 20
38.562678
 30
0
  0
VERTEX
  8
SKETCH
 10
17.109518
 20
38.13312
 30
0
  0
VERTEX
  8
SKETCH
 10
17.557838
 20
37.690472
 30
0
  0
VERTEX
  8
SKETCH
 10
18.005602
 20
37.23671
 30
0
  0
VERTEX
  8
SKETCH
 10
18.452883
 20
36.773809
 30
0
  0
VERTEX
  8
SKETCH
 10
18.89975
 20
36.303744
 30
0
  0
VERTEX
  8
SKETCH
 10
19.792531
 20
35.350027
 30
0
  0
VERTEX
  8
SKETCH
 10
20.684513
 20
34.391363
 30
0
  0
VERTEX
  8
SKETCH
 10
21.130383
 20
33.915116
 30
0
  0
VERTEX
  8
SKETCH
 10
21.576266
 20
33.443558
 30
0
  0
VERTEX
  8
SKETCH
 10
22.022235
 20
32.978667
 30
0
  0
VERTEX
  8
SKETCH
 10
22.46836
 20
32.522416
 30
0
  0
VERTEX
  8
SKETCH
 10
22.914712
 20
32.076783
 30
0
  0
VERTEX
  8
SKETCH
 10
23.361363
 20
31.643743
 30
0
  0
VERTEX
  8
SKETCH
 10
23.808383
 20
31.225271
 30
0
  0
VERTEX
  8
SKETCH
 10
24.032054
 20
31.022115
 30
0
  0
VERTEX
  8
SKETCH
 10
24.255844
 20
30.823342
 30
0
  0
VERTEX
  8
SKETCH
 10
24.479762
 20
30.629199
 30
0
  0
VERTEX
  8
SKETCH
 10
24.703817
 20
30.439933
 30
0
  0
VERTEX
  8
SKETCH
 10
24.928018
 20
30.255791
 30
0
  0
VERTEX
  8
SKETCH
 10
25.152374
 20
30.077019
 30
0
  0
VERTEX
  8
SKETCH
 10
25.376893
 20
29.903865
 30
0
  0
VERTEX
  8
SKETCH
 10
25.601584
 20
29.736576
 30
0
  0
VERTEX
  8
SKETCH
 10
25.826457
 20
29.575398
 30
0
  0
VERTEX
  8
SKETCH
 10
26.05152
 20
29.420578
 30
0
  0
VERTEX
  8
SKETCH
 10
26.276782
 20
29.272364
 30
0
  0
VERTEX
  8
SKETCH
 10
26.502252
 20
29.131003
 30
0
  0
VERTEX
  8
SKETCH
 10
26.727939
 20
28.996741
 30
0
  0
VERTEX
  8
SKETCH
 10
26.953852
 20
28.869825
 30
0
  0
VERTEX
  8
SKETCH
 10
27.18
 20
28.750502
 30
0
  0
VERTEX
  8
SKETCH
 10
27.406391
 20
28.63902
 30
0
  0
VERTEX
  8
SKETCH
 10
27.633035
 20
28.535625
 30
0
  0
VERTEX
  8
SKETCH
 10
27.85994
 20
28.440563
 30
0
  0
VERTEX
  8
SKETCH
 10
28.087115
 20
28.354083
 30
0
  0
VERTEX
  8
SKETCH
 10
28.31457
 20
28.276431
 30
0
  0
VERTEX
  8
SKETCH
 10
28.542312
 20
28.207854
 30
0
  0
VERTEX
  8
SKETCH
 10
28.770352
 20
28.148599
 30
0
  0
VERTEX
  8
SKETCH
 10
28.998697
 20
28.098912
 30
0
  0
VERTEX
  8
SKETCH
 10
29.227357
 20
28.059042
 30
0
  0
VERTEX
  8
SKETCH
 10
29.456341
 20
28.029234
 30
0
  0
VERTEX
  8
SKETCH
 10
29.685657
 20
28.009736
 30
0
  0
VERTEX
  8
SKETCH
 10
29.906445
 20
28.000868
 30
0
  0
VERTEX
  8
SKETCH
 10
30.127548
 20
28.001539
 30
0
  0
VERTEX
  8
SKETCH
 10
30.348963
 20
28.011532
 30
0
  0
VERTEX
  8
SKETCH
 10
30.570689
 20
28.030629
 30
0
  0
VERTEX
  8
SKETCH
 10
30.792725
 20
28.058612
 30
0
  0
VERTEX
  8
SKETCH
 10
31.015069
 20
28.095263
 30
0
  0
VERTEX
  8
SKETCH
 10
31.23772
 20
28.140363
 30
0
  0
VERTEX
  8
SKETCH
 10
31.460676
 20
28.193695
 30
0
  0
VERTEX
  8
SKETCH
 10
31.683936
 20
28.255041
 30
0
  0
VERTEX
  8
SKETCH
 10
31.907499
 20
28.324183
 30
0
  0
VERTEX
  8
SKETCH
 10
32.131363
 20
28.400903
 30
0
  0
VERTEX
  8
SKETCH
 10
32.355526
 20
28.484982
 30
0
  0
VERTEX
  8
SKETCH
 10
32.579987
 20
28.576204
 30
0
  0
VERTEX
  8
SKETCH
 10
32.804744
 20
28.674349
 30
0
  0
VERTEX
  8
SKETCH
 10
33.029797
 20
28.779201
 30
0
  0
VERTEX
  8
SKETCH
 10
33.255143
 20
28.89054
 30
0
  0
VERTEX
  8
SKETCH
 10
33.480782
 20
29.00815
 30
0
  0
VERTEX
  8
SKETCH
 10
33.706711
 20
29.131811
 30
0
  0
VERTEX
  8
SKETCH
 10
33.932929
 20
29.261307
 30
0
  0
VERTEX
  8
SKETCH
 10
34.159435
 20
29.396419
 30
0
  0
VERTEX
  8
SKETCH
 10
34.386228
 20
29.536928
 30
0
  0
VERTEX
  8
SKETCH
 10
34.613305
 20
29.682618
 30
0
  0
VERTEX
  8
SKETCH
 10
34.840666
 20
29.83327
 30
0
  0
VERTEX
  8
SKETCH
 10
35.068309
 20
29.988666
 30
0
  0
VERTEX
  8
SKETCH
 10
35.296232
 20
30.148588
 30
0
  0
VERTEX
  8
SKETCH
 10
35.524434
 20
30.312818
 30
0
  0
VERTEX
  8
SKETCH
 10
35.981669
 20
30.653332
 30
0
  0
VERTEX
  8
SKETCH
 10
36.440003
 20
31.008462
 30
0
  0
VERTEX
  8
SKETCH
 10
36.899423
 20
31.376465
 30
0
  0
VERTEX
  8
SKETCH
 10
37.359918
 20
31.755598
 30
0
  0
VERTEX
  8
SKETCH
 10
37.821477
 20
32.144116
 30
0
  0
VERTEX
  8
SKETCH
 10
38.284087
 20
32.540275
 30
0
  0
VERTEX
  8
SKETCH
 10
38.747737
 20
32.942332
 30
0
  0
VERTEX
  8
SKETCH
 10
39.678109
 20
33.757164
 30
0
  0
VERTEX
  8
SKETCH
 10
40.612501
 20
34.574661
 30
0
  0
VERTEX
  8
SKETCH
 10
41.081174
 20
34.980049
 30
0
  0
VERTEX
  8
SKETCH
 10
41.550817
 20
35.380872
 30
0
  0
VERTEX
  8
SKETCH
 10
42.021418
 20
35.775385
 30
0
  0
VERTEX
  8
SKETCH
 10
42.492965
 20
36.161846
 30
0
  0
VERTEX
  8
SKETCH
 10
42.965446
 20
36.538509
 30
0
  0
VERTEX
  8
SKETCH
 10
43.43885
 20
36.903632
 30
0
  0
VERTEX
  8
SKETCH
 10
43.675895
 20
37.08132
 30
0
  0
VERTEX
  8
SKETCH
 10
43.913166
 20
37.25547
 30
0
  0
VERTEX
  8
SKETCH
 10
44.150661
 20
37.425862
 30
0
  0
VERTEX
  8
SKETCH
 10
44.38838
 20
37.592279
 30
0
  0
VERTEX
  8
SKETCH
 10
44.626321
 20
37.754504
 30
0
  0
VERTEX
  8
SKETCH
 10
44.864482
 20
37.912317
 30
0
  0
VERTEX
  8
SKETCH
 10
45.102862
 20
38.065501
 30
0
  0
VERTEX
  8
SKETCH
 10
45.34146
 20
38.213838
 30
0
  0
VERTEX
  8
SKETCH
 10
45.580274
 20
38.35711
 30
0
  0
VERTEX
  8
SKETCH
 10
45.819302
 20
38.495099
 30
0
  0
VERTEX
  8
SKETCH
 10
46.058544
 20
38.627587
 30
0
  0
VERTEX
  8
SKETCH
 10
46.297997
 20
38.754357
 30
0
  0
VERTEX
  8
SKETCH
 10
46.53766
 20
38.875189
 30
0
  0
VERTEX
  8
SKETCH
 10
46.777532
 20
38.989866
 30
0
  0
VERTEX
  8
SKETCH
 10
47.017612
 20
39.098171
 30
0
  0
VERTEX
  8
SKETCH
 10
47.257897
 20
39.199885
 30
0
  0
VERTEX
  8
SKETCH
 10
47.498386
 20
39.29479
 30
0
  0
VERTEX
  8
SKETCH
 10
47.739078
 20
39.382668
 30
0
  0
VERTEX
  8
SKETCH
 10
47.979972
 20
39.463301
 30
0
  0
VERTEX
  8
SKETCH
 10
48.221066
 20
39.536471
 30
0
  0
VERTEX
  8
SKETCH
 10
48.462358
 20
39.601961
 30
0
  0
VERTEX
  8
SKETCH
 10
48.703847
 20
39.659552
 30
0
  0
VERTEX
  8
SKETCH
 10
48.945532
 20
39.709026
 30
0
  0
VERTEX
  8
SKETCH
 10
49.187411
 20
39.750166
 30
0
  0
VERTEX
  8
SKETCH
 10
49.429482
 20
39.782753
 30
0
  0
VERTEX
  8
SKETCH
 10
49.671744
 20
39.806569
 30
0
  0
VERTEX
  8
SKETCH
 10
49.914197
 20
39.821396
 30
0
  0
VERTEX
  8
SKETCH
 10
50.156837
 20
39.827017
 30
0
  0
VERTEX
  8
SKETCH
 10
50.399664
 20
39.823213
 30
0
  0
VERTEX
  8
SKETCH
 10
50.642677
 20
39.809767
 30
0
  0
VERTEX
  8
SKETCH
 10
50.885873
 20
39.78646
 30
0
  0
VERTEX
  8
SKETCH
 10
51.129252
 20
39.753075
 30
0
  0
VERTEX
  8
SKETCH
 10
51.372812
 20
39.709393
 30
0
  0
VERTEX
  8
SKETCH
 10
51.616551
 20
39.655196
 30
0
  0
VERTEX
  8
SKETCH
 10
51.860468
 20
39.590267
 30
0
  0
VERTEX
  8
SKETCH
 10
52.104562
 20
39.514388
 30
0
  0
VERTEX
  8
SKETCH
 10
52.34883
 20
39.42734
 30
0
  0
VERTEX
  8
SKETCH
 10
52.593273
 20
39.328906
 30
0
  0
VERTEX
  8
SKETCH
 10
52.837887
 20
39.218867
 30
0
  0
VERTEX
  8
SKETCH
 10
53.082672
 20
39.097006
 30
0
  0
VERTEX
  8
SKETCH
 10
53.327626
 20
38.963104
 30
0
  0
VERTEX
  8
SKETCH
 10
53.572748
 20
38.816944
 30
0
  0
VERTEX
  8
SKETCH
 10
53.818037
 20
38.658308
 30
0
  0
VERTEX
  8
SKETCH
 10
54.06349
 20
38.486978
 30
0
  0
VERTEX
  8
SKETCH
 10
54.309106
 20
38.302735
 30
0
  0
VERTEX
  8
SKETCH
 10
54.554884
 20
38.105362
 30
0
  0
VERTEX
  8
SKETCH
 10
54.800823
 20
37.89464
 30
0
  0
VERTEX
  8
SKETCH
 10
55.046921
 20
37.670353
 30
0
  0
VERTEX
  8
SKETCH
 10
55.293176
 20
37.432281
 30
0
  0
VERTEX
  8
SKETCH
 10
55.539587
 20
37.180207
 30
0
  0
VERTEX
  8
SKETCH
 10
55.786153
 20
36.913913
 30
0
  0
VERTEX
  8
SKETCH
 10
56.032872
 20
36.63318
 30
0
  0
VERTEX
  8
SKETCH
 10
56.279742
 20
36.337792
 30
0
  0
VERTEX
  8
SKETCH
 10
56.526763
 20
36.027529
 30
0
  0
VERTEX
  8
SKETCH
 10
56.773932
 20
35.702175
 30
0
  0
VERTEX
  8
SKETCH
 10
57.021249
 20
35.36151
 30
0
  0
VERTEX
  8
SKETCH
 10
57.268711
 20
35.005317
 30
0
  0
VERTEX
  8
SKETCH
 10
57.516318
 20
34.633378
 30
0
  0
VERTEX
  8
SKETCH
 10
57.764067
 20
34.245475
 30
0
  0
VERTEX
  8
SKETCH
 10
58.011958
 20
33.84139
 30
0
  0
VERTEX
  8
SKETCH
 10
58.259989
 20
33.420905
 30
0
  0
VERTEX
  8
SKETCH
 10
58.508158
 20
32.983802
 30
0
  0
VERTEX
  8
SKETCH
 10
58.756465
 20
32.529863
 30
0
  0
VERTEX
  8
SKETCH
 10
59.004907
 20
32.05887
 30
0
  0
VERTEX
  8
SKETCH
 10
59.253483
 20
31.570606
 30
0
  0
VERTEX
  8
SKETCH
 10
59.502191
 20
31.064851
 30
0
  0
VERTEX
  8
SKETCH
 10
59.751031
 20
30.541388
 30
0
  0
VERTEX
  8
SKETCH
 10
60
 20
30
 30
0
  0
SEQEND
  8
SKETCH
  0
ENDSEC
  0
EOF
