0
SECTION
  2
HEADER
  9
$ACADVER
  1
AC1009
  9
$INSUNITS
 70
     1
  0
ENDSEC
  0
SECTION
  2
BLOCKS
  0
BLOCK
  2
tick
 70
     0
 10
0.0
 20
0.0
 30
0.0
  0
LINE
  8
0
 10
0.0
 20
0.0
 30
0.0
 11
0.1
 21
0.0
 31
0.0
  0
CIRCLE
  8
0
 10
0.0
 20
0.0
 30
0.0
 40
0.05
  0
ENDBLK
  0
ENDSEC
  0
SECTION
  2
ENTITIES
  0
LINE
  8
0
 10
0.0
 20
0.0
 30
0.0
 11
1.0
 21
0.0
 31
0.0
  0
CIRCLE
  8
0
 10
2.0
 20
0.0
 30
0.0
 40
0.5
  0
ARC
  8
0
 10
3.0
 20
0.0
 30
0.0
 40
0.25
 50
0.0
 51
90.0
  0
ARC
  8
0
210
0.0
220
0.0
230
-1.0
 10
4.0
 20
0.0
 30
0.0
 40
0.25
 50
0.0
 51
90.0
  0
LWPOLYLINE
  8
0
 70
     1
 10
0.0
 20
1.0
 42
0.41421356
 10
0.4
 20
1.0
 10
0.4
 20
1.4
 10
0.0
 20
1.4
  0
POLYLINE
  8
0
 70
     0
 66
     1
  0
VERTEX
  8
0
 10
1.0
 20
1.0
 42
0.5
  0
VERTEX
  8
0
 10
1.4
 20
1.4
  0
VERTEX
  8
0
 10
1.8
 20
1.0
  0
SEQEND
  8
0
  0
ELLIPSE
  8
0
 10
2.0
 20
2.0
 30
0.0
 11
0.5
 21
0.0
 31
0.0
210
0.0
220
0.0
230
1.0
 40
0.5
 41
0.0
 42
3.14159265358979
  0
SPLINE
  8
0
 70
     8
 71
     3
 72
     4
 73
     4
 74
     0
 40
0.0
 40
0.0
 40
0.0
 40
0.0
 40
1.0
 40
1.0
 40
1.0
 40
1.0
 10
0.0
 20
3.0
 30
0.0
 10
0.5
 20
3.5
 30
0.0
 10
1.5
 20
3.5
 30
0.0
 10
2.0
 20
3.0
 30
0.0
  0
SPLINE
  8
0
 70
     8
 71
     2
 72
     3
 73
     3
 74
     0
 40
0.0
 40
0.0
 40
0.0
 40
1.0
 40
1.0
 10
3.0
 20
3.0
 30
0.0
 10
3.5
 20
4.0
 30
0.0
 10
4.0
 20
3.0
 30
0.0
  0
SPLINE
  8
0
 70
     12
 71
     3
 72
     4
 73
     4
 74
     0
 40
0.0
 40
0.0
 40
0.0
 40
0.0
 40
1.0
 40
1.0
 40
1.0
 40
1.0
 10
5.0
 20
3.0
 30
0.0
 41
1.0
 10
5.5
 20
3.5
 30
0.0
 41
1.5
 10
6.5
 20
3.5
 30
0.0
 41
1.0
 10
7.0
 20
3.0
 30
0.0
 41
1.0
  0
POINT
  8
0
 10
0.0
 20
3.0
 30
0.0
  0
INSERT
  8
0
  2
tick
 10
1.0
 20
3.0
 30
0.0
 41
2.0
 42
2.0
 43
1.0
 50
30.0
 70
     2
 44
0.3
 45
0.0
  0
INSERT
  8
0
  2
tick
 10
2.0
 20
3.0
 30
0.0
  0
TEXT
  8
0
 10
0.0
 20
4.0
 30
0.0
 40
0.2
  1
ignored
  0
HATCH
  8
0
 10
0.0
 20
0.0
 30
0.0
 71
     0
 91
     1
 92
     0
  0
ENDSEC
  0
EOF